# xmcd
#
# Track frame offsets: 
#        151
#        13000
#        26752
#        40266
#        53070
#        66651
#        79992
#        91937
#        103146
#        115971
#        127573
#        139250
#        152115
#        162154
#        173863
#        186437
#        196674
#        206899
#
# Disc length: 2922 seconds
#
# Revision: 0
# Processed by: cddbd v1.5.2PL0 Copyright (c) Steve Scherf et al.
# Submitted via: ExactAudioCopy v0.95a3
#
DISCID=fc0b6812
DTITLE=Robert Johnson - Me And The Devil Blues
DYEAR=2003
DGENRE=Blues
TTITLE0=32-20 Blues
TTITLE1=I Believe I'll Dust My Broom
TTITLE2=Sweet Home Chicago
TTITLE3=Ramblin' On My Mind
TTITLE4=Terraplane Blues
TTITLE5=They're Red Hot
TTITLE6=Phonograph Blues
TTITLE7=Walkin' Blues
TTITLE8=Preachin' Blues
TTITLE9=If I Had Possession Over Judgement Day
TTITLE10=I'm Steady Rollin' Man
TTITLE11=Kind Hearted Woman Blues
TTITLE12=Little Queen Of Spades
TTITLE13=Me And The Devil Blues
TTITLE14=Travellin' Riverside Blues
TTITLE15=Stop Breakin' Down Blues
TTITLE16=Milkcow's Calf Blues
TTITLE17=When You Got A Good Friend
EXTD=Hallmark 704122\n\n\nJWB - Feb 2004\n\n
EXTT0=
EXTT1=
EXTT2=
EXTT3=
EXTT4=
EXTT5=
EXTT6=
EXTT7=
EXTT8=
EXTT9=
EXTT10=
EXTT11=
EXTT12=
EXTT13=
EXTT14=
EXTT15=
EXTT16=
EXTT17=
PLAYORDER=
